<svg width="45" height="45" viewBox="0 0 45 45" fill="none" xmlns="http://www.w3.org/2000/svg">
<path d="M3.75 13.125C3.75 7.94733 7.94733 3.75 13.125 3.75H31.875C37.0527 3.75 41.25 7.94733 41.25 13.125V31.875C41.25 37.0527 37.0527 41.25 31.875 41.25H13.125C7.94733 41.25 3.75 37.0527 3.75 31.875V13.125Z" stroke="black" stroke-width="3"/>
<path d="M18.9562 22.7813H13.9874C12.8062 22.7813 11.85 23.5847 11.85 24.5773V32.6438H18.9562V22.7813V22.7813Z" stroke="black" stroke-width="3" stroke-miterlimit="10" stroke-linecap="round" stroke-linejoin="round"/>
<path d="M23.9273 12.3749H21.0773C19.896 12.3749 18.9398 13.3312 18.9398 14.5125V32.625H26.0461V14.5125C26.0461 13.3312 25.1086 12.3749 23.9273 12.3749Z" stroke="black" stroke-width="3" stroke-miterlimit="10" stroke-linecap="round" stroke-linejoin="round"/>
<path d="M31.0277 18.4687H26.059V32.6249H33.1652V22.0155C33.1465 20.0555 32.1902 18.4687 31.0277 18.4687Z" stroke="black" stroke-width="3" stroke-miterlimit="10" stroke-linecap="round" stroke-linejoin="round"/>
</svg>
