<svg width="45" height="45" viewBox="0 0 45 45" fill="none" xmlns="http://www.w3.org/2000/svg">
<path d="M41.25 15.975V7.4625C41.25 4.81875 40.05 3.75 37.0688 3.75H29.4937C26.5125 3.75 25.3125 4.81875 25.3125 7.4625V15.9563C25.3125 18.6188 26.5125 19.6687 29.4937 19.6687H37.0688C40.05 19.6875 41.25 18.6188 41.25 15.975Z" fill="#222222"/>
<path d="M41.25 37.0688V29.4937C41.25 26.5125 40.05 25.3125 37.0688 25.3125H29.4937C26.5125 25.3125 25.3125 26.5125 25.3125 29.4937V37.0688C25.3125 40.05 26.5125 41.25 29.4937 41.25H37.0688C40.05 41.25 41.25 40.05 41.25 37.0688Z" fill="#222222"/>
<path d="M19.6875 15.975V7.4625C19.6875 4.81875 18.4875 3.75 15.5063 3.75H7.93125C4.95 3.75 3.75 4.81875 3.75 7.4625V15.9563C3.75 18.6188 4.95 19.6687 7.93125 19.6687H15.5063C18.4875 19.6875 19.6875 18.6188 19.6875 15.975Z" fill="#222222"/>
<path d="M19.6875 37.0688V29.4937C19.6875 26.5125 18.4875 25.3125 15.5063 25.3125H7.93125C4.95 25.3125 3.75 26.5125 3.75 29.4937V37.0688C3.75 40.05 4.95 41.25 7.93125 41.25H15.5063C18.4875 41.25 19.6875 40.05 19.6875 37.0688Z" fill="#222222"/>
</svg>
