<svg width="18" height="18" viewBox="0 0 18 18" fill="none" xmlns="http://www.w3.org/2000/svg">
<path d="M15.7485 3.02012L2.24853 3.02012C2.11185 3.02055 1.97787 3.05825 1.86102 3.12916C1.74417 3.20006 1.64887 3.3015 1.58538 3.42254C1.52189 3.54358 1.49261 3.67964 1.5007 3.81608C1.50879 3.95253 1.55393 4.08418 1.63128 4.19687L8.38128 13.9469C8.66103 14.3511 9.33453 14.3511 9.61503 13.9469L16.365 4.19687C16.4432 4.08441 16.489 3.9527 16.4975 3.81603C16.506 3.67936 16.4769 3.54296 16.4134 3.42167C16.3498 3.30037 16.2543 3.19881 16.1371 3.12801C16.0198 3.05722 15.8855 3.01991 15.7485 3.02012ZM8.99853 12.2024L3.67953 4.52012L14.3175 4.52012L8.99853 12.2024Z" fill="#E41414"/>
</svg>
