<svg width="24" height="24" viewBox="0 0 24 24" fill="none" xmlns="http://www.w3.org/2000/svg">
<path d="M9.16471 17C9.85561 17 10.5337 15.8207 10.5337 14.6195C10.5368 14.2988 10.502 13.979 10.4301 13.6673L10.1029 12.7151C9.77543 11.9685 9.61083 11.1555 9.62105 10.3345C9.60694 9.89289 9.67992 9.45294 9.83546 9.04194C9.991 8.63093 10.2258 8.25763 10.5253 7.94518C10.8248 7.63272 11.1826 7.38777 11.5765 7.22549C11.9705 7.06321 12.3921 6.98707 12.8154 7.00179C13.4173 6.98675 14.0136 7.1251 14.5526 7.40486C14.7139 7.4886 14.8687 7.58426 15.0157 7.69087M9.16471 17H14.6161M9.16471 17H9.14001" stroke="black" stroke-width="1.5" stroke-linecap="round"/>
<path d="M2 7C2 4.23858 4.23858 2 7 2H17C19.7614 2 22 4.23858 22 7V17C22 19.7614 19.7614 22 17 22H7C4.23858 22 2 19.7614 2 17V7Z" stroke="black" stroke-width="1.5"/>
<path d="M8.5 12.4761H13.9761" stroke="black" stroke-width="1.5" stroke-linecap="round"/>
</svg>
