<svg width="43" height="40" viewBox="0 0 43 40" fill="none" xmlns="http://www.w3.org/2000/svg">
<g clip-path="url(#clip0_4_439)">
<path d="M41.68 0L23.3722 13.5465L26.7767 5.56317L41.68 0Z" fill="#E17726"/>
<path d="M1.03419 0.0160065L15.8977 5.56417L19.1304 13.6522L1.03419 0.0160065ZM34.3124 28.8097L42.4042 28.9637L39.5762 38.5707L29.7024 35.8522L34.3124 28.8097ZM8.35886 28.8097L12.9517 35.8522L3.09452 38.5708L0.283691 28.9637L8.35886 28.8097Z" fill="#E27625"/>
<path d="M18.6909 11.592L19.0216 22.2725L9.1264 21.8223L11.9411 17.576L11.9767 17.5352L18.6909 11.592ZM23.8781 11.4728L30.6947 17.5355L30.7301 17.5762L33.5447 21.8225L23.6517 22.2725L23.8781 11.4728ZM13.2416 28.8407L18.6446 33.0505L12.3682 36.0807L13.2416 28.8407ZM29.4309 28.84L30.2861 36.0808L24.0272 33.0502L29.4309 28.84Z" fill="#E27625"/>
<path d="M24.1654 32.6537L30.5166 35.729L24.6087 38.5367L24.6701 36.681L24.1654 32.6537ZM18.5042 32.655L18.0194 36.6507L18.0592 38.5345L12.1376 35.729L18.5042 32.655Z" fill="#D5BFB2"/>
<path d="M16.6702 23.6665L18.3299 27.1545L12.6794 25.4992L16.6702 23.6665ZM26.0011 23.6668L30.0107 25.4992L24.3417 27.154L26.0011 23.6668Z" fill="#233447"/>
<path d="M13.6734 28.805L12.7601 36.3117L7.86456 28.9692L13.6734 28.805ZM28.9984 28.8052L34.8074 28.9692L29.8936 36.312L28.9984 28.8052ZM33.6877 21.3978L29.4602 25.7063L26.2007 24.2168L24.6402 27.4975L23.6172 21.856L33.6877 21.3978ZM8.98156 21.3978L19.0541 21.856L18.0309 27.4975L16.4701 24.2173L13.2279 25.7065L8.98156 21.3978Z" fill="#CC6228"/>
<path d="M8.69672 20.5137L13.4797 25.3672L13.6454 30.1587L8.69672 20.5137ZM33.9796 20.505L29.0219 30.1672L29.2086 25.3672L33.9796 20.505ZM18.8202 20.8093L19.0127 22.021L19.4884 25.0395L19.1826 34.3103L17.7367 26.8628L17.7362 26.7858L18.8202 20.8093ZM23.8487 20.7925L24.9356 26.7858L24.9351 26.8628L23.4856 34.329L23.4282 32.4615L23.2021 24.9845L23.8487 20.7925Z" fill="#E27525"/>
<path d="M29.6337 25.1743L29.4719 29.3373L24.4262 33.2685L23.4062 32.5478L24.5496 26.6587L29.6337 25.1743ZM13.0552 25.1743L18.1217 26.6587L19.2651 32.5478L18.2451 33.2685L13.1992 29.337L13.0552 25.1743Z" fill="#F5841F"/>
<path d="M11.1721 34.8097L17.6274 37.8683L17.6001 36.5622L18.1402 36.088H24.5292L25.0889 36.5605L25.0476 37.8657L31.4621 34.8173L28.3407 37.3967L24.5666 39.9888H18.0884L14.3167 37.386L11.1721 34.8097Z" fill="#C0AC9D"/>
<path d="M23.7031 32.2465L24.6157 32.8913L25.1506 37.1587L24.3766 36.5052H18.2972L17.5379 37.1718L18.0552 32.8917L18.9682 32.2465H23.7031Z" fill="#161616"/>
<path d="M40.4714 0.375L42.669 6.96783L41.2965 13.634L42.2739 14.3878L40.9514 15.3968L41.9454 16.1645L40.6292 17.363L41.4372 17.9482L39.2929 20.4525L30.4979 17.8917L30.4217 17.8508L24.0839 12.5045L40.4714 0.375ZM2.20005 0.375L18.5877 12.5045L12.2497 17.8508L12.1735 17.8917L3.37855 20.4525L1.23421 17.9482L2.04155 17.3635L0.726214 16.1645L1.71821 15.3977L0.37588 14.3858L1.39005 13.6315L0.00238037 6.96817L2.20005 0.375Z" fill="#763E1A"/>
<path d="M30.0677 17.3317L39.3866 20.0448L42.4141 29.3758H34.4267L28.9234 29.4452L32.9257 21.6438L30.0677 17.3317ZM12.6037 17.3317L9.74523 21.6438L13.7481 29.4452L8.24723 29.3758H0.274231L3.28473 20.045L12.6037 17.3317ZM27.2331 5.51866L24.6266 12.5585L24.0734 22.0685L23.8617 25.0493L23.8449 32.664H18.8264L18.8101 25.0637L18.5977 22.066L18.0444 12.5585L15.4382 5.51866H27.2331Z" fill="#F5841F"/>
</g>
<defs>
<clipPath id="clip0_4_439">
<rect width="42.6714" height="40" fill="white"/>
</clipPath>
</defs>
</svg>
