<svg width="16" height="12" viewBox="0 0 16 12" fill="none" xmlns="http://www.w3.org/2000/svg">
<path d="M1.24994 11.25H14.7499C14.8866 11.2496 15.0206 11.2119 15.1374 11.141C15.2543 11.0701 15.3496 10.9686 15.4131 10.8476C15.4766 10.7265 15.5059 10.5905 15.4978 10.454C15.4897 10.3176 15.4445 10.1859 15.3672 10.0733L8.61719 0.323253C8.33744 -0.0809972 7.66394 -0.0809972 7.38344 0.323253L0.633442 10.0733C0.555311 10.1857 0.509493 10.3174 0.500966 10.4541C0.492439 10.5908 0.52153 10.7272 0.585077 10.8485C0.648625 10.9698 0.744199 11.0713 0.861415 11.1421C0.978631 11.2129 1.11301 11.2502 1.24994 11.25ZM7.99994 2.06775L13.3189 9.75H2.68094L7.99994 2.06775Z" fill="#02B15A"/>
</svg>
