<svg width="144" height="45" viewBox="0 0 144 45" fill="none" xmlns="http://www.w3.org/2000/svg">
<path d="M11.5217 10.0339C11.5302 10.0327 11.5387 10.0314 11.5471 10.0301C12.0559 9.9473 12.5821 9.90625 13.125 9.90625H31.875C32.3616 9.90625 32.8519 9.92552 33.3328 10.0084C33.347 10.0108 33.3614 10.013 33.3757 10.0148C38.4734 10.6665 41.6562 14.7104 41.6562 20.2872V30.3378C41.6562 33.4022 40.704 35.9905 38.9951 37.8226C37.2779 39.6635 34.8153 40.7188 31.875 40.7188H13.125C10.1847 40.7188 7.72206 39.6635 6.00493 37.8226C4.29601 35.9905 3.34375 33.4022 3.34375 30.3378V20.2872C3.34375 14.7467 6.47421 10.7223 11.5217 10.0339ZM11.6851 10.6809L11.8478 11.6676L11.6851 10.6809L11.6709 10.683L11.8043 11.6741L11.6709 10.683C9.47254 10.9788 7.57145 12.0078 6.22801 13.6881C4.88905 15.3627 4.15625 17.6169 4.15625 20.2872V30.3378C4.15625 33.3045 5.07937 35.7413 6.65132 37.4266C8.21517 39.1031 10.4398 40.0583 13.125 40.0583H31.875C34.5602 40.0583 36.7848 39.1031 38.3487 37.4266C39.9206 35.7413 40.8438 33.3045 40.8438 30.3378V20.2872C40.8438 17.598 40.0978 15.3291 38.7381 13.6495C37.374 11.9644 35.4459 10.9408 33.2212 10.6635C33.2128 10.6624 33.2044 10.6612 33.1961 10.6597C32.7871 10.5866 32.3513 10.5667 31.875 10.5667H13.125C12.6249 10.5667 12.1451 10.605 11.6851 10.6809Z" fill="black" stroke="black" stroke-width="2" stroke-linecap="round" stroke-linejoin="round"/>
<path d="M5.85187 12.1308C5.96226 9.01105 8.20329 6.35911 11.2597 6.02048L29.7182 3.97541C33.0975 3.60101 36.1231 6.20395 36.5149 9.7397L36.5719 10.2544L35.7643 10.3439L35.7073 9.82917C35.3595 6.69049 32.6935 4.46324 29.8077 4.78297L11.3492 6.82804C8.7757 7.11317 6.8161 9.33646 6.66875 12.0403L5.85187 12.1308Z" fill="black" stroke="black" stroke-width="2"/>
<path d="M29.5938 25.3125C29.5938 23.017 31.4546 21.1562 33.75 21.1562H39.6429C40.7548 21.1562 41.6562 22.0576 41.6562 23.1696V27.4553C41.6562 28.5673 40.7548 29.4687 39.6429 29.4687H33.75C31.4546 29.4687 29.5938 27.6079 29.5938 25.3125ZM30.4062 25.3125C30.4062 27.1592 31.9033 28.6562 33.75 28.6562H39.6429C40.3061 28.6562 40.8438 28.1186 40.8438 27.4553V23.1696C40.8438 22.5064 40.3061 21.9687 39.6429 21.9687H33.75C31.9033 21.9687 30.4062 23.4658 30.4062 25.3125Z" fill="black" stroke="black" stroke-width="2" stroke-linecap="round"/>
<path d="M82.684 13.484L77.028 33H74.172L69.636 17.292L64.932 33L62.104 33.028L56.644 13.484H59.36L63.616 30.032L68.32 13.484H71.176L75.656 29.976L79.94 13.484H82.684ZM84.5204 25.272C84.5204 23.704 84.8377 22.332 85.4724 21.156C86.1071 19.9613 86.9751 19.0373 88.0764 18.384C89.1964 17.7307 90.4377 17.404 91.8004 17.404C93.1444 17.404 94.3111 17.6933 95.3004 18.272C96.2897 18.8507 97.0271 19.5787 97.5124 20.456V17.656H100.088V33H97.5124V30.144C97.0084 31.04 96.2524 31.7867 95.2444 32.384C94.2551 32.9627 93.0977 33.252 91.7724 33.252C90.4097 33.252 89.1777 32.916 88.0764 32.244C86.9751 31.572 86.1071 30.6293 85.4724 29.416C84.8377 28.2027 84.5204 26.8213 84.5204 25.272ZM97.5124 25.3C97.5124 24.1427 97.2791 23.1347 96.8124 22.276C96.3457 21.4173 95.7111 20.764 94.9084 20.316C94.1244 19.8493 93.2564 19.616 92.3044 19.616C91.3524 19.616 90.4844 19.84 89.7004 20.288C88.9164 20.736 88.2911 21.3893 87.8244 22.248C87.3577 23.1067 87.1244 24.1147 87.1244 25.272C87.1244 26.448 87.3577 27.4747 87.8244 28.352C88.2911 29.2107 88.9164 29.8733 89.7004 30.34C90.4844 30.788 91.3524 31.012 92.3044 31.012C93.2564 31.012 94.1244 30.788 94.9084 30.34C95.7111 29.8733 96.3457 29.2107 96.8124 28.352C97.2791 27.4747 97.5124 26.4573 97.5124 25.3ZM106.942 12.28V33H104.394V12.28H106.942ZM113.833 12.28V33H111.285V12.28H113.833ZM132.176 24.74C132.176 25.2253 132.148 25.7387 132.092 26.28H119.828C119.921 27.792 120.434 28.9773 121.368 29.836C122.32 30.676 123.468 31.096 124.812 31.096C125.913 31.096 126.828 30.844 127.556 30.34C128.302 29.8173 128.825 29.1267 129.124 28.268H131.868C131.457 29.7427 130.636 30.9467 129.404 31.88C128.172 32.7947 126.641 33.252 124.812 33.252C123.356 33.252 122.049 32.9253 120.892 32.272C119.753 31.6187 118.857 30.6947 118.204 29.5C117.55 28.2867 117.224 26.8867 117.224 25.3C117.224 23.7133 117.541 22.3227 118.176 21.128C118.81 19.9333 119.697 19.0187 120.836 18.384C121.993 17.7307 123.318 17.404 124.812 17.404C126.268 17.404 127.556 17.7213 128.676 18.356C129.796 18.9907 130.654 19.868 131.252 20.988C131.868 22.0893 132.176 23.34 132.176 24.74ZM129.544 24.208C129.544 23.2373 129.329 22.4067 128.9 21.716C128.47 21.0067 127.882 20.4747 127.136 20.12C126.408 19.7467 125.596 19.56 124.7 19.56C123.412 19.56 122.31 19.9707 121.396 20.792C120.5 21.6133 119.986 22.752 119.856 24.208H129.544ZM138.647 19.756V28.8C138.647 29.5467 138.805 30.0787 139.123 30.396C139.44 30.6947 139.991 30.844 140.775 30.844H142.651V33H140.355C138.936 33 137.872 32.6733 137.163 32.02C136.453 31.3667 136.099 30.2933 136.099 28.8V19.756H134.111V17.656H136.099V13.792H138.647V17.656H142.651V19.756H138.647Z" fill="black"/>
</svg>
